<svg xmlns="http://www.w3.org/2000/svg" xmlns:xlink="http://www.w3.org/1999/xlink" viewBox="0 0 489 186" preserveAspectRatio="xMidYMid" style="display: block; shape-rendering: auto; background: transparent;" width="489" height="186"><style type="text/css">
  .ld-text text {
    text-anchor: middle;
    dominant-baseline: middle;
    font-size: 57px;
    opacity: 0;
    user-select: none;
    pointer-events: none;
  }
</style>
<g class="ld-text" style="transform-origin:244.5px 93px;transform:scale(1)">
<g transform="translate(244.5,93)">
  <g transform="scale(0.7125) translate(0,0)"><g class="path" style="opacity: 1; transform-origin: -118.52px -0.02px; transform: matrix3d(0.91, 0, 0, 0, 0, 0.91, 0, 0, 0, 0, 0.91, 0, 0, 0, 0, 1); animation: 1.33333s linear -0.8s infinite normal forwards running animate-or16w17nap9; transform-box: view-box;"><path d="M11.20 6.92L25.28 6.92L25.28-0.04L4.16-0.04L4.16 5L4.16 14.04C4.16 20.92 0.40 20.92 0.40 27.96C0.40 34.84 4.16 34.84 4.16 41.88L4.16 49.40L4.16 55.96L11.20 55.96L11.20 41.88C11.20 34.84 7.44 34.84 7.44 27.96C7.44 24.44 8.40 22.68 9.36 20.92L16.32 20.92C17.28 19.16 18.16 17.48 18.16 14.04L18.16 13.88L11.20 13.88" style="fill: rgb(30, 27, 75);" transform="translate(-131.360,-27.978)"></path></g><g class="path" style="opacity: 1; transform-origin: -92.84px -0.02px; transform: matrix3d(0.91, 0, 0, 0, 0, 0.91, 0, 0, 0, 0, 0.91, 0, 0, 0, 0, 1); animation: 1.33333s linear -0.72s infinite normal forwards running animate-or16w17nap9; transform-box: view-box;"><path d="M50.96 48.92L36.88 48.92L36.88 41.88C36.88 34.84 33.12 34.84 33.12 27.96C33.12 20.92 36.88 20.92 36.88 14.04L36.88-0.04L29.84-0.04L29.84 14.04C29.84 20.92 26.08 20.92 26.08 27.96C26.08 34.84 29.84 34.84 29.84 41.88L29.84 55.96L50.96 55.96" style="fill: rgb(30, 27, 75);" transform="translate(-131.360,-27.978)"></path></g><g class="path" style="opacity: 1; transform-origin: -67.16px 0.3px; transform: matrix3d(0.91, 0, 0, 0, 0, 0.91, 0, 0, 0, 0, 0.91, 0, 0, 0, 0, 1); animation: 1.33333s linear -0.64s infinite normal forwards running animate-or16w17nap9; transform-box: view-box;"><path d="M76.64-0.04L69.60-0.04L69.60 14.04C69.60 20.92 65.84 20.92 65.84 27.96C65.84 34.92 69.60 34.92 69.60 41.88L69.60 46.04C69.60 47.96 68.08 49.56 66.08 49.56C64.16 49.56 62.56 47.96 62.56 46.04L62.56 41.88C62.56 34.92 58.80 34.92 58.80 27.96C58.80 20.92 62.56 20.92 62.56 14.04L62.56-0.04L55.52-0.04L55.52 14.04C55.52 20.92 51.76 20.92 51.76 27.96C51.76 34.92 55.52 34.92 55.52 41.88L55.52 46.04C55.52 50.60 58.48 54.52 62.56 55.96C63.68 56.36 64.88 56.60 66.08 56.60C67.36 56.60 68.48 56.36 69.60 55.96C73.76 54.52 76.64 50.60 76.64 46.04L76.64 41.88C76.64 34.92 72.88 34.92 72.88 27.96C72.88 20.92 76.64 20.92 76.64 14.04" style="fill: rgb(30, 27, 75);" transform="translate(-131.360,-27.978)"></path></g><g class="path" style="opacity: 1; transform-origin: -41.44px -0.06px; transform: matrix3d(0.91, 0, 0, 0, 0, 0.91, 0, 0, 0, 0, 0.91, 0, 0, 0, 0, 1); animation: 1.33333s linear -0.56s infinite normal forwards running animate-or16w17nap9; transform-box: view-box;"><path d="M95.36 13.32L102.40 13.32L102.40 9.88C102.40 5.24 99.44 1.32 95.36-0.12C94.24-0.52 93.04-0.68 91.76-0.68C90.56-0.68 89.36-0.52 88.24-0.12L88.24-0.04C84.16 1.40 81.20 5.32 81.20 9.88L81.20 13.96C81.20 20.92 77.44 20.92 77.44 27.88C77.44 34.84 81.20 34.84 81.20 41.88L81.20 45.96C81.20 50.60 84.16 54.44 88.24 55.96C89.36 56.36 90.56 56.52 91.76 56.52C93.04 56.52 94.24 56.36 95.36 55.96C99.44 54.52 102.40 50.60 102.40 45.96L102.40 42.52L95.36 42.52L95.36 45.96C95.36 47.96 93.76 49.48 91.76 49.48C89.84 49.48 88.24 47.96 88.24 45.96L88.24 41.88C88.24 34.84 84.48 34.84 84.48 27.88C84.48 20.92 88.24 20.92 88.24 13.96L88.24 9.88C88.24 7.88 89.84 6.36 91.76 6.36C93.76 6.36 95.36 7.88 95.36 9.88" style="fill: rgb(30, 27, 75);" transform="translate(-131.360,-27.978)"></path></g><g class="path" style="opacity: 1; transform-origin: -16.8px -0.02px; transform: matrix3d(0.91, 0, 0, 0, 0, 0.91, 0, 0, 0, 0, 0.91, 0, 0, 0, 0, 1); animation: 1.33333s linear -0.48s infinite normal forwards running animate-or16w17nap9; transform-box: view-box;"><path d="M125.12 7L125.12-0.04L104-0.04L104 7L111.04 7L111.04 14.04C111.04 20.92 107.28 20.92 107.28 27.96C107.28 34.84 111.04 34.84 111.04 41.88L111.04 55.96L118.08 55.96L118.08 41.88C118.08 34.84 114.32 34.84 114.32 27.96C114.32 20.92 118.08 20.92 118.08 14.04L118.08 7" style="fill: rgb(30, 27, 75);" transform="translate(-131.360,-27.978)"></path></g><g class="path" style="opacity: 1; transform-origin: 7.4px 0.3px; transform: matrix3d(0.91, 0, 0, 0, 0, 0.91, 0, 0, 0, 0, 0.91, 0, 0, 0, 0, 1); animation: 1.33333s linear -0.4s infinite normal forwards running animate-or16w17nap9; transform-box: view-box;"><path d="M151.20-0.04L144.16-0.04L144.16 14.04C144.16 20.92 140.40 20.92 140.40 27.96C140.40 34.92 144.16 34.92 144.16 41.88L144.16 46.04C144.16 47.96 142.64 49.56 140.64 49.56C138.72 49.56 137.12 47.96 137.12 46.04L137.12 41.88C137.12 34.92 133.36 34.92 133.36 27.96C133.36 20.92 137.12 20.92 137.12 14.04L137.12-0.04L130.08-0.04L130.08 14.04C130.08 20.92 126.32 20.92 126.32 27.96C126.32 34.92 130.08 34.92 130.08 41.88L130.08 46.04C130.08 50.60 133.04 54.52 137.12 55.96C138.24 56.36 139.44 56.60 140.64 56.60C141.92 56.60 143.04 56.36 144.16 55.96C148.32 54.52 151.20 50.60 151.20 46.04L151.20 41.88C151.20 34.92 147.44 34.92 147.44 27.96C147.44 20.92 151.20 20.92 151.20 14.04" style="fill: rgb(30, 27, 75);" transform="translate(-131.360,-27.978)"></path></g><g class="path" style="opacity: 1; transform-origin: 33.12px -0.34px; transform: matrix3d(0.91, 0, 0, 0, 0, 0.91, 0, 0, 0, 0, 0.91, 0, 0, 0, 0, 1); animation: 1.33333s linear -0.32s infinite normal forwards running animate-or16w17nap9; transform-box: view-box;"><path d="M176.96 9.88C176.96 5.32 174 1.40 169.92-0.04C168.80-0.44 167.60-0.68 166.32-0.68C165.12-0.68 163.92-0.44 162.80-0.04C158.72 1.40 155.76 5.32 155.76 9.88L155.76 13.96C155.76 20.84 152 20.84 152 27.88C152 34.84 155.76 34.84 155.76 41.88L155.76 53.48L155.76 55.96L162.80 55.96L162.80 41.96L169.92 41.96L169.92 55.96L176.96 55.96L176.96 41.88C176.96 34.84 173.12 34.84 173.12 27.88C173.12 20.84 176.96 20.84 176.96 13.96 zM169.92 13.96C169.92 20.84 166.08 20.84 166.08 27.88C166.08 31.48 167.12 33.16 168.08 35L161.04 35C160.08 33.16 159.04 31.48 159.04 27.88C159.04 20.84 162.80 20.84 162.80 13.96L162.80 10.44C162.80 8.52 164.40 6.92 166.32 6.92C168.32 6.92 169.92 8.52 169.92 10.44" style="fill: rgb(30, 27, 75);" transform="translate(-131.360,-27.978)"></path></g><g class="path" style="opacity: 1; transform-origin: 57.76px -0.02px; transform: matrix3d(0.91, 0, 0, 0, 0, 0.91, 0, 0, 0, 0, 0.91, 0, 0, 0, 0, 1); animation: 1.33333s linear -0.24s infinite normal forwards running animate-or16w17nap9; transform-box: view-box;"><path d="M199.68 7L199.68-0.04L178.56-0.04L178.56 7L185.60 7L185.60 14.04C185.60 20.92 181.84 20.92 181.84 27.96C181.84 34.84 185.60 34.84 185.60 41.88L185.60 55.96L192.64 55.96L192.64 41.88C192.64 34.84 188.88 34.84 188.88 27.96C188.88 20.92 192.64 20.92 192.64 14.04L192.64 7" style="fill: rgb(30, 27, 75);" transform="translate(-131.360,-27.978)"></path></g><g class="path" style="opacity: 1; transform-origin: 74.92px -0.02px; transform: matrix3d(0.91, 0, 0, 0, 0, 0.91, 0, 0, 0, 0, 0.91, 0, 0, 0, 0, 1); animation: 1.33333s linear -0.16s infinite normal forwards running animate-or16w17nap9; transform-box: view-box;"><path d="M204.64 55.96L211.68 55.96L211.68 41.88C211.68 34.84 207.92 34.84 207.92 27.96C207.92 20.92 211.68 20.92 211.68 14.04L211.68-0.04L204.64-0.04L204.64 14.04C204.64 20.92 200.88 20.92 200.88 27.96C200.88 34.84 204.64 34.84 204.64 41.88" style="fill: rgb(30, 27, 75);" transform="translate(-131.360,-27.978)"></path></g><g class="path" style="opacity: 1; transform-origin: 93.6px -0.06px; transform: matrix3d(0.91, 0, 0, 0, 0, 0.91, 0, 0, 0, 0, 0.91, 0, 0, 0, 0, 1); animation: 1.33333s linear -0.08s infinite normal forwards running animate-or16w17nap9; transform-box: view-box;"><path d="M230.40-0.04C229.28-0.44 228.08-0.68 226.88-0.68C225.60-0.68 224.48-0.44 223.36-0.04C219.20 1.40 216.32 5.32 216.32 9.88L216.32 10.68C216.32 11 216.32 12.04 216.32 12.52L216.32 14.04C216.32 20.92 212.48 20.92 212.48 27.96C212.48 34.84 216.32 34.84 216.32 41.88L216.32 45.96C216.32 50.60 219.20 54.52 223.36 55.96C224.48 56.36 225.60 56.52 226.88 56.52C228.08 56.52 229.28 56.36 230.40 55.96C234.48 54.52 237.44 50.60 237.44 45.96L237.44 41.88C237.44 34.84 233.68 34.84 233.68 27.96C233.68 20.92 237.44 20.92 237.44 14.04L237.44 12.52C237.44 12.12 237.44 11.24 237.44 10.92L237.44 9.88C237.44 5.32 234.48 1.40 230.40-0.04 zM230.40 10.92C230.40 11.24 230.40 12.12 230.40 12.52L230.40 14.04C230.40 20.92 226.64 20.92 226.64 27.96C226.64 34.84 230.40 34.84 230.40 41.88L230.40 45.96C230.40 47.96 228.80 49.48 226.88 49.48C224.88 49.48 223.36 47.96 223.36 45.96L223.36 41.88C223.36 34.84 219.52 34.84 219.52 27.96C219.52 20.92 223.36 20.92 223.36 14.04L223.36 12.52C223.36 12.12 223.36 11.24 223.36 10.92L223.36 9.88C223.36 7.96 224.88 6.36 226.88 6.36C228.80 6.36 230.40 7.96 230.40 9.88" style="fill: rgb(30, 27, 75);" transform="translate(-131.360,-27.978)"></path></g><g class="path" style="opacity: 1; transform-origin: 119.32px -0.02px; transform: matrix3d(0.91, 0, 0, 0, 0, 0.91, 0, 0, 0, 0, 0.91, 0, 0, 0, 0, 1); animation: 1.33333s linear 0s infinite normal forwards running animate-or16w17nap9; transform-box: view-box;"><path d="M263.12-0.04L256.08-0.04L256.08 14.04L249.04-0.04L242-0.04L242 14.04C242 20.92 238.24 20.92 238.24 27.96C238.24 34.84 242 34.84 242 41.88L242 55.96L249.04 55.96L249.04 41.88C249.04 34.84 245.20 34.84 245.20 27.96C245.20 21.48 248.48 21 248.96 15.48C251.20 20.28 247.92 22.28 252.32 29.48C252.88 34.92 256.08 35.40 256.08 41.88L256.08 55.96L263.12 55.96L263.12 41.88C263.12 34.84 259.28 34.84 259.28 27.96C259.28 20.92 263.12 20.92 263.12 14.04" style="fill: rgb(30, 27, 75);" transform="translate(-131.360,-27.978)"></path></g></g><text font-size="57" font-family="LIQUIDO-Fluid.otf from Upload" fill="#1e1b4b" dy="0.35em">Fluctuation</text>
</g>
</g><style type="text/css">@keyframes animate-or16w17nap9 { 0.00% {transform: translate(0.00px,0.00px) rotate(0.00deg) scale(0.91, 0.91) skew(0deg, 0.00deg) ;opacity: 1.00;}4.00% {transform: translate(0.00px,0.00px) rotate(0.00deg) scale(0.91, 0.91) ;}8.00% {animation-timing-function: cubic-bezier(0.69,0.60,0.35,0.27);transform: translate(0.00px,0.00px) rotate(0.00deg) scale(0.91, 0.91) ;}14.00% {transform: translate(0.00px,0.00px) rotate(0.00deg) scale(0.93, 0.93) ;}18.00% {transform: translate(0.00px,0.00px) rotate(0.00deg) scale(0.94, 0.94) ;}22.00% {animation-timing-function: cubic-bezier(0.67,0.66,0.34,0.33);transform: translate(0.00px,0.00px) rotate(0.00deg) scale(0.96, 0.96) ;}26.00% {transform: translate(0.00px,0.00px) rotate(0.00deg) scale(0.97, 0.97) ;}30.00% {transform: translate(0.00px,0.00px) rotate(0.00deg) scale(0.99, 0.99) ;}34.00% {animation-timing-function: cubic-bezier(0.65,0.71,0.32,0.38);transform: translate(0.00px,0.00px) rotate(0.00deg) scale(1.01, 1.01) ;}40.00% {animation-timing-function: cubic-bezier(0.64,0.74,0.31,0.41);transform: translate(0.00px,0.00px) rotate(0.00deg) scale(1.02, 1.02) ;}46.00% {animation-timing-function: cubic-bezier(0.60,0.91,0.23,0.63);transform: translate(0.00px,0.00px) rotate(0.00deg) scale(1.03, 1.03) ;}50.00% {transform: translate(0.00px,0.00px) rotate(0.00deg) scale(1.03, 1.03) ;}54.00% {transform: translate(0.00px,0.00px) rotate(0.00deg) scale(1.03, 1.03) ;}58.00% {animation-timing-function: cubic-bezier(0.69,0.60,0.35,0.27);transform: translate(0.00px,0.00px) rotate(0.00deg) scale(1.03, 1.03) ;}64.00% {transform: translate(0.00px,0.00px) rotate(0.00deg) scale(1.01, 1.01) ;}68.00% {transform: translate(0.00px,0.00px) rotate(0.00deg) scale(1.00, 1.00) ;}72.00% {animation-timing-function: cubic-bezier(0.67,0.66,0.34,0.33);transform: translate(0.00px,0.00px) rotate(0.00deg) scale(0.98, 0.98) ;}76.00% {animation-timing-function: cubic-bezier(0.66,0.68,0.33,0.35);transform: translate(0.00px,0.00px) rotate(0.00deg) scale(0.97, 0.97) ;}82.00% {animation-timing-function: cubic-bezier(0.65,0.71,0.32,0.38);transform: translate(0.00px,0.00px) rotate(0.00deg) scale(0.94, 0.94) ;}88.00% {animation-timing-function: cubic-bezier(0.65,0.73,0.31,0.40);transform: translate(0.00px,0.00px) rotate(0.00deg) scale(0.92, 0.92) ;}94.00% {animation-timing-function: cubic-bezier(0.63,0.80,0.28,0.48);transform: translate(0.00px,0.00px) rotate(0.00deg) scale(0.91, 0.91) ;}100.00% {animation-timing-function: cubic-bezier(0.63,0.80,0.28,0.48);transform: translate(0.00px,0.00px) rotate(0.00deg) scale(0.91, 0.91) ;} }</style><!-- [ldio] generated by https://loading.io --></svg>