<svg xmlns="http://www.w3.org/2000/svg" xmlns:xlink="http://www.w3.org/1999/xlink" viewBox="0 0 1015 462" preserveAspectRatio="xMidYMid" style="display: block; shape-rendering: auto; background: rgba(255, 255, 255, 0);" width="1015" height="462"><style type="text/css">
  .ld-text text {
    text-anchor: middle;
    dominant-baseline: middle;
    font-size: 153px;
    opacity: 0;
    user-select: none;
    pointer-events: none;
  }
</style>
<g class="ld-text" style="transform-origin:507.5px 231px;transform:scale(1)">
<g transform="translate(507.5,231)">
  <g transform="scale(1.9125) translate(0,0)"><g class="path" style="opacity: 1; transform-origin: -130.16px -0.01px; transform: matrix3d(0.91, 0, 0, 0, 0, 0.91, 0, 0, 0, 0, 0.91, 0, 0, 0, 0, 1); animation: 1s linear -0.605s infinite normal forwards running animate-ljacqmb1e9; transform-box: view-box;"><path d="M11.20 6.93L25.28 6.93L25.28-0.03L4.16-0.03L4.16 5.01L4.16 14.05C4.16 20.93 0.40 20.93 0.40 27.97C0.40 34.85 4.16 34.85 4.16 41.89L4.16 49.41L4.16 55.97L11.20 55.97L11.20 41.89C11.20 34.85 7.44 34.85 7.44 27.97C7.44 24.45 8.40 22.69 9.36 20.93L16.32 20.93C17.28 19.17 18.16 17.49 18.16 14.05L18.16 13.89L11.20 13.89" style="fill: rgb(17, 69, 141);" transform="translate(-143.000,-27.983)"></path></g><g class="path" style="opacity: 1; transform-origin: -104.48px -0.01px; transform: matrix3d(0.91, 0, 0, 0, 0, 0.91, 0, 0, 0, 0, 0.91, 0, 0, 0, 0, 1); animation: 1s linear -0.55s infinite normal forwards running animate-ljacqmb1e9; transform-box: view-box;"><path d="M50.96 48.93L36.88 48.93L36.88 41.89C36.88 34.85 33.12 34.85 33.12 27.97C33.12 20.93 36.88 20.93 36.88 14.05L36.88-0.03L29.84-0.03L29.84 14.05C29.84 20.93 26.08 20.93 26.08 27.97C26.08 34.85 29.84 34.85 29.84 41.89L29.84 55.97L50.96 55.97" style="fill: rgb(17, 69, 141);" transform="translate(-143.000,-27.983)"></path></g><g class="path" style="opacity: 1; transform-origin: -78.8px 0.31px; transform: matrix3d(0.91, 0, 0, 0, 0, 0.91, 0, 0, 0, 0, 0.91, 0, 0, 0, 0, 1); animation: 1s linear -0.495s infinite normal forwards running animate-ljacqmb1e9; transform-box: view-box;"><path d="M76.64-0.03L69.60-0.03L69.60 14.05C69.60 20.93 65.84 20.93 65.84 27.97C65.84 34.93 69.60 34.93 69.60 41.89L69.60 46.05C69.60 47.97 68.08 49.57 66.08 49.57C64.16 49.57 62.56 47.97 62.56 46.05L62.56 41.89C62.56 34.93 58.80 34.93 58.80 27.97C58.80 20.93 62.56 20.93 62.56 14.05L62.56-0.03L55.52-0.03L55.52 14.05C55.52 20.93 51.76 20.93 51.76 27.97C51.76 34.93 55.52 34.93 55.52 41.89L55.52 46.05C55.52 50.61 58.48 54.53 62.56 55.97C63.68 56.37 64.88 56.61 66.08 56.61C67.36 56.61 68.48 56.37 69.60 55.97C73.76 54.53 76.64 50.61 76.64 46.05L76.64 41.89C76.64 34.93 72.88 34.93 72.88 27.97C72.88 20.93 76.64 20.93 76.64 14.05" style="fill: rgb(17, 69, 141);" transform="translate(-143.000,-27.983)"></path></g><g class="path" style="opacity: 1; transform-origin: -53.08px -0.05px; transform: matrix3d(0.91, 0, 0, 0, 0, 0.91, 0, 0, 0, 0, 0.91, 0, 0, 0, 0, 1); animation: 1s linear -0.44s infinite normal forwards running animate-ljacqmb1e9; transform-box: view-box;"><path d="M95.36 13.33L102.40 13.33L102.40 9.89C102.40 5.25 99.44 1.33 95.36-0.11C94.24-0.51 93.04-0.67 91.76-0.67C90.56-0.67 89.36-0.51 88.24-0.11L88.24-0.03C84.16 1.41 81.20 5.33 81.20 9.89L81.20 13.97C81.20 20.93 77.44 20.93 77.44 27.89C77.44 34.85 81.20 34.85 81.20 41.89L81.20 45.97C81.20 50.61 84.16 54.45 88.24 55.97C89.36 56.37 90.56 56.53 91.76 56.53C93.04 56.53 94.24 56.37 95.36 55.97C99.44 54.53 102.40 50.61 102.40 45.97L102.40 42.53L95.36 42.53L95.36 45.97C95.36 47.97 93.76 49.49 91.76 49.49C89.84 49.49 88.24 47.97 88.24 45.97L88.24 41.89C88.24 34.85 84.48 34.85 84.48 27.89C84.48 20.93 88.24 20.93 88.24 13.97L88.24 9.89C88.24 7.89 89.84 6.37 91.76 6.37C93.76 6.37 95.36 7.89 95.36 9.89" style="fill: rgb(17, 69, 141);" transform="translate(-143.000,-27.983)"></path></g><g class="path" style="opacity: 1; transform-origin: -28.44px -0.01px; transform: matrix3d(0.91, 0, 0, 0, 0, 0.91, 0, 0, 0, 0, 0.91, 0, 0, 0, 0, 1); animation: 1s linear -0.385s infinite normal forwards running animate-ljacqmb1e9; transform-box: view-box;"><path d="M125.12 7.01L125.12-0.03L104-0.03L104 7.01L111.04 7.01L111.04 14.05C111.04 20.93 107.28 20.93 107.28 27.97C107.28 34.85 111.04 34.85 111.04 41.89L111.04 55.97L118.08 55.97L118.08 41.89C118.08 34.85 114.32 34.85 114.32 27.97C114.32 20.93 118.08 20.93 118.08 14.05L118.08 7.01" style="fill: rgb(17, 69, 141);" transform="translate(-143.000,-27.983)"></path></g><g class="path" style="opacity: 1; transform-origin: -4.24px 0.31px; transform: matrix3d(0.91, 0, 0, 0, 0, 0.91, 0, 0, 0, 0, 0.91, 0, 0, 0, 0, 1); animation: 1s linear -0.33s infinite normal forwards running animate-ljacqmb1e9; transform-box: view-box;"><path d="M151.20-0.03L144.16-0.03L144.16 14.05C144.16 20.93 140.40 20.93 140.40 27.97C140.40 34.93 144.16 34.93 144.16 41.89L144.16 46.05C144.16 47.97 142.64 49.57 140.64 49.57C138.72 49.57 137.12 47.97 137.12 46.05L137.12 41.89C137.12 34.93 133.36 34.93 133.36 27.97C133.36 20.93 137.12 20.93 137.12 14.05L137.12-0.03L130.08-0.03L130.08 14.05C130.08 20.93 126.32 20.93 126.32 27.97C126.32 34.93 130.08 34.93 130.08 41.89L130.08 46.05C130.08 50.61 133.04 54.53 137.12 55.97C138.24 56.37 139.44 56.61 140.64 56.61C141.92 56.61 143.04 56.37 144.16 55.97C148.32 54.53 151.20 50.61 151.20 46.05L151.20 41.89C151.20 34.93 147.44 34.93 147.44 27.97C147.44 20.93 151.20 20.93 151.20 14.05" style="fill: rgb(17, 69, 141);" transform="translate(-143.000,-27.983)"></path></g><g class="path" style="opacity: 1; transform-origin: 21.48px -0.33px; transform: matrix3d(0.91, 0, 0, 0, 0, 0.91, 0, 0, 0, 0, 0.91, 0, 0, 0, 0, 1); animation: 1s linear -0.275s infinite normal forwards running animate-ljacqmb1e9; transform-box: view-box;"><path d="M176.96 9.89C176.96 5.33 174 1.41 169.92-0.03C168.80-0.43 167.60-0.67 166.32-0.67C165.12-0.67 163.92-0.43 162.80-0.03C158.72 1.41 155.76 5.33 155.76 9.89L155.76 13.97C155.76 20.85 152 20.85 152 27.89C152 34.85 155.76 34.85 155.76 41.89L155.76 53.49L155.76 55.97L162.80 55.97L162.80 41.97L169.92 41.97L169.92 55.97L176.96 55.97L176.96 41.89C176.96 34.85 173.12 34.85 173.12 27.89C173.12 20.85 176.96 20.85 176.96 13.97 zM169.92 13.97C169.92 20.85 166.08 20.85 166.08 27.89C166.08 31.49 167.12 33.17 168.08 35.01L161.04 35.01C160.08 33.17 159.04 31.49 159.04 27.89C159.04 20.85 162.80 20.85 162.80 13.97L162.80 10.45C162.80 8.53 164.40 6.93 166.32 6.93C168.32 6.93 169.92 8.53 169.92 10.45" style="fill: rgb(17, 69, 141);" transform="translate(-143.000,-27.983)"></path></g><g class="path" style="opacity: 1; transform-origin: 46.12px -0.01px; transform: matrix3d(0.91, 0, 0, 0, 0, 0.91, 0, 0, 0, 0, 0.91, 0, 0, 0, 0, 1); animation: 1s linear -0.22s infinite normal forwards running animate-ljacqmb1e9; transform-box: view-box;"><path d="M199.68 7.01L199.68-0.03L178.56-0.03L178.56 7.01L185.60 7.01L185.60 14.05C185.60 20.93 181.84 20.93 181.84 27.97C181.84 34.85 185.60 34.85 185.60 41.89L185.60 55.97L192.64 55.97L192.64 41.89C192.64 34.85 188.88 34.85 188.88 27.97C188.88 20.93 192.64 20.93 192.64 14.05L192.64 7.01" style="fill: rgb(17, 69, 141);" transform="translate(-143.000,-27.983)"></path></g><g class="path" style="opacity: 1; transform-origin: 63.28px -0.01px; transform: matrix3d(0.91, 0, 0, 0, 0, 0.91, 0, 0, 0, 0, 0.91, 0, 0, 0, 0, 1); animation: 1s linear -0.165s infinite normal forwards running animate-ljacqmb1e9; transform-box: view-box;"><path d="M204.64 55.97L211.68 55.97L211.68 41.89C211.68 34.85 207.92 34.85 207.92 27.97C207.92 20.93 211.68 20.93 211.68 14.05L211.68-0.03L204.64-0.03L204.64 14.05C204.64 20.93 200.88 20.93 200.88 27.97C200.88 34.85 204.64 34.85 204.64 41.89" style="fill: rgb(17, 69, 141);" transform="translate(-143.000,-27.983)"></path></g><g class="path" style="opacity: 1; transform-origin: 81.96px -0.05px; transform: matrix3d(0.91, 0, 0, 0, 0, 0.91, 0, 0, 0, 0, 0.91, 0, 0, 0, 0, 1); animation: 1s linear -0.11s infinite normal forwards running animate-ljacqmb1e9; transform-box: view-box;"><path d="M230.40-0.03C229.28-0.43 228.08-0.67 226.88-0.67C225.60-0.67 224.48-0.43 223.36-0.03C219.20 1.41 216.32 5.33 216.32 9.89L216.32 10.69C216.32 11.01 216.32 12.05 216.32 12.53L216.32 14.05C216.32 20.93 212.48 20.93 212.48 27.97C212.48 34.85 216.32 34.85 216.32 41.89L216.32 45.97C216.32 50.61 219.20 54.53 223.36 55.97C224.48 56.37 225.60 56.53 226.88 56.53C228.08 56.53 229.28 56.37 230.40 55.97C234.48 54.53 237.44 50.61 237.44 45.97L237.44 41.89C237.44 34.85 233.68 34.85 233.68 27.97C233.68 20.93 237.44 20.93 237.44 14.05L237.44 12.53C237.44 12.13 237.44 11.25 237.44 10.93L237.44 9.89C237.44 5.33 234.48 1.41 230.40-0.03 zM230.40 10.93C230.40 11.25 230.40 12.13 230.40 12.53L230.40 14.05C230.40 20.93 226.64 20.93 226.64 27.97C226.64 34.85 230.40 34.85 230.40 41.89L230.40 45.97C230.40 47.97 228.80 49.49 226.88 49.49C224.88 49.49 223.36 47.97 223.36 45.97L223.36 41.89C223.36 34.85 219.52 34.85 219.52 27.97C219.52 20.93 223.36 20.93 223.36 14.05L223.36 12.53C223.36 12.13 223.36 11.25 223.36 10.93L223.36 9.89C223.36 7.97 224.88 6.37 226.88 6.37C228.80 6.37 230.40 7.97 230.40 9.89" style="fill: rgb(17, 69, 141);" transform="translate(-143.000,-27.983)"></path></g><g class="path" style="opacity: 1; transform-origin: 107.68px -0.01px; transform: matrix3d(0.91, 0, 0, 0, 0, 0.91, 0, 0, 0, 0, 0.91, 0, 0, 0, 0, 1); animation: 1s linear -0.055s infinite normal forwards running animate-ljacqmb1e9; transform-box: view-box;"><path d="M263.12-0.03L256.08-0.03L256.08 14.05L249.04-0.03L242-0.03L242 14.05C242 20.93 238.24 20.93 238.24 27.97C238.24 34.85 242 34.85 242 41.89L242 55.97L249.04 55.97L249.04 41.89C249.04 34.85 245.20 34.85 245.20 27.97C245.20 21.49 248.48 21.01 248.96 15.49C251.20 20.29 247.92 22.29 252.32 29.49C252.88 34.93 256.08 35.41 256.08 41.89L256.08 55.97L263.12 55.97L263.12 41.89C263.12 34.85 259.28 34.85 259.28 27.97C259.28 20.93 263.12 20.93 263.12 14.05" style="fill: rgb(17, 69, 141);" transform="translate(-143.000,-27.983)"></path></g><g class="path" style="opacity: 1; transform-origin: 132.18px -0.05px; transform: matrix3d(0.91, 0, 0, 0, 0, 0.91, 0, 0, 0, 0, 0.91, 0, 0, 0, 0, 1); animation: 1s linear 0s infinite normal forwards running animate-ljacqmb1e9; transform-box: view-box;"><path d="M279.36 13.49L286.40 13.49L286.40 9.89C286.40 8.69 286.16 7.49 285.76 6.37C284.32 2.29 280.48-0.59 275.92-0.67L275.84-0.67C274.56-0.67 273.36-0.43 272.32-0.03C268.24 1.41 265.28 5.33 265.28 9.89L265.28 14.13C265.28 15.97 264.96 17.33 264.56 18.45C264.08 19.65 263.84 20.77 264 21.97C264.24 22.93 264.64 24.29 267.52 27.97C271.44 33.17 278.48 36.53 279.04 38.77C279.20 39.57 279.36 40.69 279.36 41.89L279.36 45.97C279.36 47.97 277.76 49.49 275.84 49.49C273.84 49.49 272.32 47.97 272.32 45.97L272.32 42.61L265.28 42.61L265.28 45.97C265.28 50.61 268.16 54.53 272.32 55.97C273.36 56.37 274.56 56.53 275.84 56.53L275.92 56.53C280.48 56.53 284.32 53.57 285.76 49.49C286.16 48.45 286.40 47.25 286.40 45.97L286.40 43.33L286.40 41.89C286.40 37.57 284.96 35.33 282.64 33.49C274.32 27.09 273.44 25.01 272 22.53C270.64 20.21 271.60 18.93 272 17.09C272.16 16.21 272.32 15.25 272.32 14.05L272.32 13.97L272.32 9.89C272.32 7.97 273.84 6.37 275.84 6.37C277.76 6.37 279.36 7.97 279.36 9.89" style="fill: rgb(17, 69, 141);" transform="translate(-143.000,-27.983)"></path></g></g><text font-size="153" font-family="liquido-fluid.otf from Upload" fill="#11458d" dy="0.35em">Fluctuations</text>
</g>
</g><style type="text/css">@keyframes animate-ljacqmb1e9 { 0.00% {transform: translate(0.00px,0.00px) rotate(0.00deg) scale(0.91, 0.91) skew(0deg, 0.00deg) ;opacity: 1.00;}4.00% {transform: translate(0.00px,0.00px) rotate(0.00deg) scale(0.91, 0.91) ;}8.00% {animation-timing-function: cubic-bezier(0.69,0.60,0.35,0.27);transform: translate(0.00px,0.00px) rotate(0.00deg) scale(0.91, 0.91) ;}14.00% {transform: translate(0.00px,0.00px) rotate(0.00deg) scale(0.93, 0.93) ;}18.00% {transform: translate(0.00px,0.00px) rotate(0.00deg) scale(0.94, 0.94) ;}22.00% {animation-timing-function: cubic-bezier(0.67,0.66,0.34,0.33);transform: translate(0.00px,0.00px) rotate(0.00deg) scale(0.96, 0.96) ;}26.00% {transform: translate(0.00px,0.00px) rotate(0.00deg) scale(0.97, 0.97) ;}30.00% {transform: translate(0.00px,0.00px) rotate(0.00deg) scale(0.99, 0.99) ;}34.00% {animation-timing-function: cubic-bezier(0.65,0.71,0.32,0.38);transform: translate(0.00px,0.00px) rotate(0.00deg) scale(1.01, 1.01) ;}40.00% {animation-timing-function: cubic-bezier(0.64,0.74,0.31,0.41);transform: translate(0.00px,0.00px) rotate(0.00deg) scale(1.02, 1.02) ;}46.00% {animation-timing-function: cubic-bezier(0.60,0.91,0.23,0.63);transform: translate(0.00px,0.00px) rotate(0.00deg) scale(1.03, 1.03) ;}50.00% {transform: translate(0.00px,0.00px) rotate(0.00deg) scale(1.03, 1.03) ;}54.00% {transform: translate(0.00px,0.00px) rotate(0.00deg) scale(1.03, 1.03) ;}58.00% {animation-timing-function: cubic-bezier(0.69,0.60,0.35,0.27);transform: translate(0.00px,0.00px) rotate(0.00deg) scale(1.03, 1.03) ;}64.00% {transform: translate(0.00px,0.00px) rotate(0.00deg) scale(1.01, 1.01) ;}68.00% {transform: translate(0.00px,0.00px) rotate(0.00deg) scale(1.00, 1.00) ;}72.00% {animation-timing-function: cubic-bezier(0.67,0.66,0.34,0.33);transform: translate(0.00px,0.00px) rotate(0.00deg) scale(0.98, 0.98) ;}76.00% {animation-timing-function: cubic-bezier(0.66,0.68,0.33,0.35);transform: translate(0.00px,0.00px) rotate(0.00deg) scale(0.97, 0.97) ;}82.00% {animation-timing-function: cubic-bezier(0.65,0.71,0.32,0.38);transform: translate(0.00px,0.00px) rotate(0.00deg) scale(0.94, 0.94) ;}88.00% {animation-timing-function: cubic-bezier(0.65,0.73,0.31,0.40);transform: translate(0.00px,0.00px) rotate(0.00deg) scale(0.92, 0.92) ;}94.00% {animation-timing-function: cubic-bezier(0.63,0.80,0.28,0.48);transform: translate(0.00px,0.00px) rotate(0.00deg) scale(0.91, 0.91) ;}100.00% {animation-timing-function: cubic-bezier(0.63,0.80,0.28,0.48);transform: translate(0.00px,0.00px) rotate(0.00deg) scale(0.91, 0.91) ;} }</style><!-- [ldio] generated by https://loading.io --></svg>